<?xml version="1.0" standalone="no"?>
<!DOCTYPE svg PUBLIC "-//W3C//DTD SVG 20010904//EN"
 "http://www.w3.org/TR/2001/REC-SVG-20010904/DTD/svg10.dtd">
<svg version="1.0" xmlns="http://www.w3.org/2000/svg"
 width="500.000000pt" height="500.000000pt" viewBox="0 0 500.000000 500.000000"
 preserveAspectRatio="xMidYMid meet">

<g transform="translate(0.000000,500.000000) scale(0.100000,-0.100000)"
fill="#000000" stroke="none">
<path d="M876 3300 c-35 -11 -63 -36 -84 -75 -14 -25 -16 -66 -17 -235 0 -193
-1 -208 -22 -247 -29 -53 -73 -84 -129 -91 -28 -3 -48 -11 -54 -22 -12 -22 -4
-30 33 -30 38 0 109 -41 131 -75 38 -58 47 -106 45 -240 -6 -269 0 -298 65
-329 48 -23 201 -23 210 0 3 9 6 18 6 20 0 2 -40 4 -90 4 -84 0 -92 2 -121 28
-40 36 -47 78 -38 227 13 199 -15 308 -91 364 l-37 27 39 38 c75 71 83 102 84
339 l1 208 27 27 c24 25 34 27 119 31 82 3 114 12 102 31 -6 10 -147 10 -179
0z"/>
<path d="M3946 3301 c-13 -20 17 -29 101 -32 84 -4 95 -6 119 -31 l27 -26 1
-209 c1 -237 8 -267 85 -341 l40 -39 -23 -11 c-31 -14 -72 -68 -90 -118 -22
-63 -27 -130 -18 -259 10 -150 3 -191 -37 -227 -29 -26 -37 -28 -122 -28 -79
0 -90 -2 -85 -16 3 -9 6 -18 6 -20 0 -2 39 -4 86 -4 104 0 145 16 169 67 18
38 20 69 16 273 -3 144 7 191 50 251 25 36 87 69 129 69 27 0 31 3 28 23 -2
18 -11 23 -48 27 -57 7 -104 40 -133 93 -21 40 -22 54 -22 247 0 186 -2 208
-20 239 -36 62 -66 76 -166 78 -49 1 -91 -2 -93 -6z"/>
<path d="M2210 3050 c-41 -41 -13 -100 47 -100 55 0 78 56 39 95 -30 30 -59
32 -86 5z"/>
<path d="M1717 3023 c-4 -3 -7 -132 -7 -285 l0 -278 50 0 50 0 0 143 c0 136 1
145 23 165 29 27 73 38 92 22 12 -10 15 -43 15 -171 l0 -159 55 0 55 0 0 149
c0 173 -4 202 -36 236 -33 35 -115 36 -168 0 l-36 -24 0 104 0 105 -43 0 c-24
0 -47 -3 -50 -7z"/>
<path d="M2810 2985 l0 -35 59 0 60 0 3 -215 3 -215 32 -31 c36 -37 107 -49
167 -29 39 13 41 16 26 54 -9 24 -13 25 -53 20 -76 -11 -77 -8 -77 257 l0 229
-110 0 -110 0 0 -35z"/>
<path d="M1438 2991 c-47 -15 -94 -49 -106 -76 -17 -37 -15 -102 4 -135 20
-33 58 -56 148 -89 86 -32 115 -65 97 -109 -24 -57 -105 -69 -187 -27 l-48 25
-28 -27 c-22 -21 -25 -29 -16 -40 44 -54 200 -80 283 -49 85 33 128 111 106
194 -14 50 -53 84 -128 111 -104 37 -128 53 -131 87 -4 38 14 54 66 61 27 4
54 -1 87 -16 l49 -22 24 25 c14 13 21 29 18 35 -25 40 -175 72 -238 52z"/>
<path d="M2683 2850 c-17 -10 -38 -32 -46 -47 l-15 -28 -11 43 -12 42 -64 0
-65 0 0 -35 c0 -31 3 -35 25 -35 l25 0 0 -130 0 -130 -25 0 c-22 0 -25 -4 -25
-35 l0 -35 120 0 120 0 0 35 c0 34 -1 35 -40 35 l-40 0 0 75 c0 84 14 121 56
154 41 32 54 27 54 -19 0 -38 2 -40 29 -40 17 0 32 3 34 8 3 4 8 42 12 85 l7
77 -53 0 c-36 0 -65 -7 -86 -20z"/>
<path d="M2100 2825 l0 -35 60 0 61 0 -3 -127 -3 -128 -57 -3 -58 -3 0 -34 0
-35 160 0 160 0 0 35 0 35 -50 0 -50 0 0 165 0 165 -110 0 -110 0 0 -35z"/>
<path d="M3192 2846 c2 -8 30 -98 63 -200 48 -148 64 -186 78 -186 16 0 16 -2
3 -29 -15 -28 -69 -61 -100 -61 -13 0 -15 -6 -10 -27 11 -53 10 -52 56 -42 53
12 98 42 126 84 17 24 172 450 172 471 0 3 -24 4 -52 2 l-53 -3 -44 -158 c-25
-86 -48 -152 -52 -146 -4 7 -24 79 -45 160 l-39 149 -53 0 c-41 0 -53 -3 -50
-14z"/>
<path d="M2167 2303 c-4 -3 -7 -62 -7 -130 l0 -123 58 0 c58 0 122 27 122 51
0 6 13 -2 28 -19 36 -38 79 -48 127 -28 31 13 35 19 26 30 -8 10 -23 13 -47 9
-32 -5 -64 8 -64 28 0 4 28 9 63 11 l62 3 -2 33 c-2 51 -37 82 -90 82 -30 0
-49 -6 -63 -20 -20 -20 -20 -20 -35 15 -10 24 -25 40 -49 50 -36 15 -117 20
-129 8z m114 -59 c7 -9 13 -38 13 -66 0 -41 -5 -54 -23 -69 -13 -11 -27 -19
-32 -19 -5 0 -9 38 -9 85 0 76 2 85 19 85 10 0 24 -7 32 -16z m183 -40 c25
-24 19 -34 -19 -34 -24 0 -35 5 -35 15 0 11 23 32 37 35 1 0 9 -7 17 -16z"/>
<path d="M2530 2243 c0 -5 14 -50 31 -101 l31 -93 36 3 35 3 33 98 33 97 -29
0 c-27 0 -31 -4 -45 -57 -29 -102 -24 -104 -56 20 -9 32 -14 37 -39 37 -17 0
-30 -3 -30 -7z"/>
</g>
</svg>
